<svg xmlns="http://www.w3.org/2000/svg" version="1.1" xmlns:xlink="http://www.w3.org/1999/xlink" xmlns:svgjs="http://svgjs.dev/svgjs" width="1440" height="250" preserveAspectRatio="none" viewBox="0 0 1440 250"><g mask="url(&quot;#SvgjsMask1035&quot;)" fill="none"><path d="M40 250L290 0L522.5 0L272.5 250z" fill="url(&quot;#SvgjsLinearGradient1036&quot;)"></path><path d="M267.6 250L517.6 0L670.6 0L420.6 250z" fill="url(&quot;#SvgjsLinearGradient1036&quot;)"></path><path d="M502.20000000000005 250L752.2 0L885.7 0L635.7 250z" fill="url(&quot;#SvgjsLinearGradient1036&quot;)"></path><path d="M756.8000000000001 250L1006.8000000000001 0L1089.3000000000002 0L839.3000000000001 250z" fill="url(&quot;#SvgjsLinearGradient1036&quot;)"></path><path d="M1399 250L1149 0L1074 0L1324 250z" fill="url(&quot;#SvgjsLinearGradient1037&quot;)"></path><path d="M1190.4 250L940.4000000000001 0L673.4000000000001 0L923.4000000000001 250z" fill="url(&quot;#SvgjsLinearGradient1037&quot;)"></path><path d="M928.8 250L678.8 0L545.3 0L795.3 250z" fill="url(&quot;#SvgjsLinearGradient1037&quot;)"></path><path d="M691.1999999999999 250L441.19999999999993 0L309.19999999999993 0L559.1999999999999 250z" fill="url(&quot;#SvgjsLinearGradient1037&quot;)"></path><path d="M1272.721906022056 250L1440 82.72190602205589L1440 250z" fill="url(&quot;#SvgjsLinearGradient1036&quot;)"></path><path d="M0 250L167.2780939779441 250L 0 82.72190602205589z" fill="url(&quot;#SvgjsLinearGradient1037&quot;)"></path></g><defs><mask id="SvgjsMask1035"><rect width="1440" height="250" fill="#ffffff"></rect></mask><linearGradient x1="0%" y1="100%" x2="100%" y2="0%" id="SvgjsLinearGradient1036"><stop stop-color="rgba(15, 70, 185, 0.2)" offset="0"></stop><stop stop-opacity="0" stop-color="rgba(15, 70, 185, 0.2)" offset="0.66"></stop></linearGradient><linearGradient x1="100%" y1="100%" x2="0%" y2="0%" id="SvgjsLinearGradient1037"><stop stop-color="rgba(15, 70, 185, 0.2)" offset="0"></stop><stop stop-opacity="0" stop-color="rgba(15, 70, 185, 0.2)" offset="0.66"></stop></linearGradient></defs></svg>