<?xml version="1.0" standalone="no"?>
<!DOCTYPE svg PUBLIC "-//W3C//DTD SVG 20010904//EN"
 "http://www.w3.org/TR/2001/REC-SVG-20010904/DTD/svg10.dtd">
<svg version="1.0" xmlns="http://www.w3.org/2000/svg"
 width="1024.000000pt" height="1024.000000pt" viewBox="0 0 1024.000000 1024.000000"
 preserveAspectRatio="xMidYMid meet">

<g transform="translate(0.000000,1024.000000) scale(0.100000,-0.100000)"
fill="#000000" stroke="none">
<path d="M6888 6904 c-44 -24 -50 -44 -42 -162 14 -218 -46 -401 -188 -579
-94 -119 -210 -208 -394 -304 -282 -147 -458 -313 -597 -564 -56 -100 -127
-292 -127 -341 0 -21 -4 -25 -17 -21 -181 59 -291 77 -471 77 -150 0 -289 -21
-390 -58 l-47 -18 -23 80 c-124 430 -493 759 -943 842 -130 24 -390 16 -514
-16 -406 -103 -727 -410 -850 -815 l-26 -85 -119 0 c-65 0 -130 -4 -145 -10
-40 -15 -58 -69 -53 -167 3 -75 6 -85 31 -110 26 -27 32 -28 145 -31 l118 -4
11 -96 c63 -518 466 -948 973 -1038 107 -19 320 -19 427 0 365 64 696 314 868
656 79 158 125 342 125 502 l0 79 48 20 c208 89 526 88 768 -2 l54 -20 0 -56
c0 -161 58 -390 141 -555 148 -294 411 -524 732 -637 165 -58 271 -75 472 -75
200 0 314 18 466 74 314 114 587 368 733 681 168 361 202 849 90 1293 -46 181
-120 358 -209 502 -53 84 -82 106 -133 102 -46 -4 -74 -42 -90 -123 -16 -79
-67 -168 -125 -221 -27 -24 -52 -42 -54 -40 -3 3 3 35 13 73 15 54 19 102 18
238 0 151 -3 181 -27 268 -52 193 -171 396 -303 516 -78 71 -166 128 -228 146
-61 18 -83 18 -118 -1z m225 -306 c121 -125 203 -283 239 -458 28 -133 21
-300 -17 -420 -54 -172 -51 -158 -30 -197 31 -57 75 -75 164 -69 56 3 90 12
138 36 69 34 170 121 204 176 12 20 25 32 30 27 4 -4 22 -43 39 -87 148 -376
168 -854 50 -1216 -109 -335 -327 -580 -629 -711 -84 -36 -191 -69 -224 -69
-10 0 9 33 53 93 73 97 164 261 205 370 42 113 57 195 57 312 0 181 -42 299
-169 470 -154 208 -194 327 -172 512 6 51 8 104 5 119 -8 32 -64 58 -98 45
-76 -30 -257 -223 -371 -396 -213 -322 -253 -674 -107 -931 65 -112 171 -204
235 -204 36 0 85 50 85 87 0 33 -15 58 -81 131 -89 97 -137 244 -124 377 8 84
45 206 92 300 37 74 154 265 163 265 3 0 13 -32 22 -70 22 -93 74 -193 165
-320 126 -174 160 -271 150 -427 -13 -192 -139 -445 -328 -662 l-73 -84 -76 6
c-246 18 -523 154 -704 347 -179 190 -272 415 -283 681 -9 212 23 372 107 539
117 231 279 384 556 523 60 30 143 79 184 108 154 107 317 301 391 465 43 95
79 242 79 325 0 38 3 69 6 69 4 0 34 -28 67 -62z m-3433 -957 c295 -78 538
-282 671 -565 68 -146 83 -217 83 -401 -1 -190 -17 -264 -92 -420 -135 -278
-368 -474 -662 -556 -75 -21 -105 -24 -255 -23 -139 1 -184 5 -245 21 -298 83
-552 311 -669 604 -62 155 -88 389 -60 545 71 402 372 717 769 805 119 26 339
21 460 -10z"/>
</g>
</svg>
